<svg width="12.764" xmlns="http://www.w3.org/2000/svg" height="13.833" id="screenshot-7a718df6-c3b1-801b-8007-1e137312a799" viewBox="0 0 12.764 13.833" xmlns:xlink="http://www.w3.org/1999/xlink" fill="none" version="1.1"><g id="shape-7a718df6-c3b1-801b-8007-1e137312a799" width="300" height="60" xml:space="preserve" rx="0" ry="0" style="fill: rgb(0, 0, 0);"><g id="shape-7a718df6-c3b1-801b-8007-1e13731332f8" rx="0" ry="0" style="fill: rgb(0, 0, 0);"><g id="shape-7a718df6-c3b1-801b-8007-1e13731332f9" rx="0" ry="0" style="fill: rgb(0, 0, 0);"><g id="shape-7a718df6-c3b1-801b-8007-1e13731538e1"><g class="fills" id="fills-7a718df6-c3b1-801b-8007-1e13731538e1"><path d="M2.382269859313965,0.00002181529998779297C1.7198551893234253,0.00002181529998779297,1.2153996229171753,0.08400619029998779,0.8681095838546753,0.2512425184249878C0.5272892713546753,0.4118870496749878,0.2957829236984253,0.6819065809249878,0.1736515760421753,1.0615452527999878C0.05786788463592529,1.4343479871749878,0.000006556510925292969,1.9421604871749878,0.000006556510925292969,2.5854711532592773L0.000006556510925292969,8.292502403259277L0.000006556510925292969,8.592062950134277L0.000006556510925292969,11.247336387634277C0.000006556510925292969,11.890402793884277,0.05786788463592529,12.398215293884277,0.1736515760421753,12.771262168884277C0.2957829236984253,13.150656700134277,0.5272892713546753,13.420676231384277,0.8681095838546753,13.581564903259277C1.2153996229171753,13.748801231384277,1.7198551893234253,13.832541465759277,2.382269859313965,13.832541465759277L5.343817710876465,13.832541465759277C6.726447105407715,13.832541465759277,7.935553550720215,13.626730918884277,8.970953941345215,13.215109825134277C10.012763023376465,12.803488731384277,10.823004722595215,12.105734825134277,11.401801109313965,11.121603965759277C11.704291343688965,10.610861778259277,11.927618980407715,10.000021934509277,12.072028160095215,9.288840293884277C11.662665367126465,9.554465293884277,11.175543785095215,9.709006309509277,10.654547691345215,9.709006309509277C9.866583824157715,9.709006309509277,9.359686851501465,9.393820762634277,8.992621421813965,9.559103965759277C7.962836265563965,10.022482872009277,8.574530601501465,11.295432090759277,4.215216636657715,11.295432090759277C3.790778160095215,11.295432090759277,3.501349449157715,11.205588340759277,3.347052574157715,11.025656700134277C3.192694664001465,10.845480918884277,3.115546226501465,10.536887168884277,3.115546226501465,10.099631309509277L3.115546226501465,8.592062950134277L3.115546226501465,8.292502403259277L3.115546226501465,3.7331762313842773C3.115546226501465,3.2956762313842773,3.192694664001465,2.9870824813842773,3.347052574157715,2.8071508407592773C3.501349449157715,2.6269750595092773,3.790778160095215,2.5373754501342773,4.215216636657715,2.5373754501342773C8.574530601501465,2.5373754501342773,7.962836265563965,3.8100805282592773,8.992621421813965,4.273703575134277C9.359686851501465,4.438742637634277,9.866583824157715,4.123801231384277,10.654547691345215,4.123801231384277C11.175543785095215,4.123801231384277,11.662665367126465,4.278342247009277,12.072028160095215,4.543967247009277C11.927618980407715,3.8325414657592773,11.704291343688965,3.2219457626342773,11.401801109313965,2.7109594345092773C10.823004722595215,1.7270725965499878,10.012763023376465,1.0290745496749878,8.970953941345215,0.6174534559249878C7.935553550720215,0.2060765027999878,6.726447105407715,0.00002181529998779297,5.343817710876465,0.00002181529998779297Z" style="word-spacing: 0px; paint-order: stroke markers; font-family: &quot;ADLaM Display&quot;; letter-spacing: -0.264583px; stroke-width: 0.583732; stroke-linejoin: round; line-height: 1.1; font-size: 19.7556px; stroke-linecap: round; fill: rgb(106, 49, 164); fill-opacity: 1;"/></g></g></g><g id="shape-7a718df6-c3b1-801b-8007-1e1373157a1c" rx="0" ry="0" style="fill: rgb(0, 0, 0);"><g id="shape-7a718df6-c3b1-801b-8007-1e137315e8bd"><g class="fills" id="fills-7a718df6-c3b1-801b-8007-1e137315e8bd"><path d="M7.843939781188965,6.480490684509277C7.653021812438965,6.793234825134277,7.494635581970215,7.251242637634277,7.441840171813965,7.865256309509277C7.338568687438965,9.067648887634277,5.476996421813965,9.155539512634277,4.786749839782715,9.072043418884277C4.584540367126465,9.047385215759277,4.577887535095215,10.251730918884277,4.786749839782715,10.251730918884277C6.176703453063965,10.473410606384277,7.597968101501465,9.839621543884277,8.260321617126465,8.942893028259277C8.496771812438965,8.674338340759277,8.386847496032715,8.581320762634277,8.214606285095215,8.314475059509277C7.962042808532715,7.890891075134277,7.816473960876465,7.397482872009277,7.816473960876465,6.872580528259277C7.816473960876465,6.739768028259277,7.825507164001465,6.608664512634277,7.843878746032715,6.480490684509277Z" style="vector-effect: none; word-spacing: 0px; baseline-shift: baseline; overflow: visible; font-family: &quot;ADLaM Display&quot;; letter-spacing: -0.264583px; stroke-width: 1.37889; stroke-linejoin: round; display: inline; line-height: 1.1; font-size: 19.7556px; stop-color: rgb(0, 0, 0); stroke-linecap: round; fill: rgb(19, 165, 215); fill-opacity: 1;"/></g></g></g><g id="shape-7a718df6-c3b1-801b-8007-1e1373161c00"><g class="fills" id="fills-7a718df6-c3b1-801b-8007-1e1373161c00"><path d="M10.653754234313965,4.761740684509277C9.488043785095215,4.761740684509277,8.543097496032715,5.706809043884277,8.543097496032715,6.872336387634277C8.543097496032715,8.038107872009277,9.488043785095215,8.983176231384277,10.653754234313965,8.983176231384277C11.819403648376465,8.983176231384277,12.764410972595215,8.038107872009277,12.764410972595215,6.872336387634277C12.764410972595215,5.706809043884277,11.819403648376465,4.761740684509277,10.653754234313965,4.761740684509277ZM10.653754234313965,5.817160606384277C11.236578941345215,5.817160606384277,11.709052085876465,6.289572715759277,11.709052085876465,6.872336387634277C11.709052085876465,7.455344200134277,11.236578941345215,7.927756309509277,10.653754234313965,7.927756309509277C10.070868492126465,7.927756309509277,9.598395347595215,7.455344200134277,9.598395347595215,6.872336387634277C9.598395347595215,6.289572715759277,10.070868492126465,5.817160606384277,10.653754234313965,5.817160606384277Z" style="stroke: none; stroke-width: 0.759088; stroke-linejoin: round; stroke-dasharray: none; stroke-opacity: 1; paint-order: stroke markers; fill: rgb(144, 144, 144); fill-opacity: 1;"/></g></g></g></g></svg>